<svg width="14" height="15" viewBox="0 0 14 15" fill="none" xmlns="http://www.w3.org/2000/svg">
<path d="M6.94802 8.69901C4.63138 8.69901 2.79736 6.75007 2.79736 4.40134C2.79736 2.05262 4.63138 0.0537109 6.94802 0.0537109C9.26467 0.0537109 11.0987 2.00265 11.0987 4.35137C11.0987 6.70009 9.26467 8.69901 6.94802 8.69901ZM6.94802 0.903249C5.11401 0.903249 3.56958 2.45241 3.56958 4.40134C3.56958 6.35028 5.06575 7.89944 6.94802 7.89944C8.8303 7.89944 10.3265 6.35028 10.3265 4.40134C10.3265 2.45241 8.78203 0.903249 6.94802 0.903249Z" fill="#292624"/>
<path fill-rule="evenodd" clip-rule="evenodd" d="M6.94799 0.107354C4.66391 0.107354 2.85101 2.07922 2.85101 4.40131C2.85101 6.72258 4.66313 8.64529 6.94799 8.64529C9.23207 8.64529 11.045 6.67343 11.045 4.35134C11.045 2.03007 9.23285 0.107354 6.94799 0.107354ZM2.74365 4.40131C2.74365 2.02596 4.59877 0 6.94799 0C9.29642 0 11.1523 1.97516 11.1523 4.35134C11.1523 6.72669 9.29721 8.75265 6.94799 8.75265C4.59955 8.75265 2.74365 6.77749 2.74365 4.40131ZM3.51587 4.40131C3.51587 2.424 5.08308 0.849538 6.94799 0.849538C8.8129 0.849538 10.3801 2.424 10.3801 4.40131C10.3801 6.37812 8.86166 7.95308 6.94799 7.95308C5.03432 7.95308 3.51587 6.37812 3.51587 4.40131ZM6.94799 0.956892C5.14488 0.956892 3.62322 2.48075 3.62322 4.40131C3.62322 6.32238 5.0971 7.84573 6.94799 7.84573C8.79887 7.84573 10.2728 6.32238 10.2728 4.40131C10.2728 2.48075 8.7511 0.956892 6.94799 0.956892Z" fill="#292624"/>
<path fill-rule="evenodd" clip-rule="evenodd" d="M6.94765 7.84982C3.1831 7.84982 0.0942383 11.0481 0.0942383 14.946H0.914717C0.914717 11.4978 3.61747 8.69936 6.94765 8.69936C10.2713 8.69936 12.9701 11.487 12.9806 14.9258H13.801C13.7904 11.0371 10.7057 7.84982 6.94765 7.84982Z" fill="#292624"/>
<path fill-rule="evenodd" clip-rule="evenodd" d="M0.148079 14.8926H0.861223C0.889105 11.4413 3.60337 8.64605 6.94762 8.64605C10.2854 8.64605 12.9956 11.4304 13.0338 14.8725H13.747C13.7083 11.0361 10.657 7.90386 6.94762 7.90386C3.23173 7.90386 0.176276 11.047 0.148079 14.8926ZM0.0405273 14.9463C0.0405273 11.0206 3.15168 7.79651 6.94762 7.79651C10.737 7.79651 13.844 11.0095 13.8547 14.926L13.8548 14.9799H12.927L12.9268 14.9264C12.9164 11.5153 10.24 8.7534 6.94762 8.7534C3.64883 8.7534 0.968361 11.5261 0.968361 14.9463V15H0.0405273V14.9463Z" fill="#292624"/>
</svg>
