<svg width="24" height="21" viewBox="0 0 24 21" fill="none" xmlns="http://www.w3.org/2000/svg">
<path d="M23.1948 4.39413H6.81672C6.59666 4.39413 6.41874 4.57195 6.41874 4.79187C6.41874 5.0118 6.59666 5.18961 6.81672 5.18961H9.2327C7.45818 6.31731 6.39533 8.27793 6.41874 10.3789C6.39533 12.4799 7.45818 14.4405 9.2327 15.5682H0.823594V5.18961H4.81745C5.03751 5.18961 5.21543 5.0118 5.21543 4.79187C5.21543 4.57195 5.03751 4.39413 4.81745 4.39413H0.823594C0.378791 4.39413 0.0229492 4.74976 0.0229492 5.18961V15.5729C0.0229492 16.0128 0.378791 16.3731 0.823594 16.3731H23.1995C23.6396 16.3731 24.0002 16.0174 24.0002 15.5729V5.18961C23.9955 4.74976 23.6396 4.39413 23.1948 4.39413ZM7.21471 10.3836C7.21471 7.51989 9.3638 5.19429 12.0092 5.19429C14.6546 5.19429 16.8037 7.52456 16.8037 10.3836C16.8037 13.2426 14.6546 15.5729 12.0092 15.5729C9.3638 15.5729 7.21471 13.2426 7.21471 10.3836ZM23.1948 15.5729H14.7857C16.5602 14.4452 17.6231 12.4846 17.5997 10.3836C17.6231 8.28261 16.5602 6.32199 14.7857 5.19429H23.1948V15.5729Z" fill="#292624"/>
<path d="M21.0922 0.0846097C20.9049 -0.00897565 20.6848 -0.0276927 20.4835 0.0424963L11.8777 2.92493C11.667 2.99511 11.5547 3.21972 11.6249 3.43029C11.6951 3.64085 11.9199 3.75316 12.1306 3.68297L20.7363 0.800538L21.6213 3.43029C21.6681 3.56599 21.7805 3.66893 21.9209 3.697C22.0614 3.72508 22.2065 3.67829 22.3002 3.57066C22.3938 3.46304 22.4266 3.3133 22.3798 3.17761L21.4948 0.547857C21.4293 0.346649 21.2841 0.178195 21.0922 0.0846097Z" fill="#292624"/>
<path d="M11.8873 17.0841L3.28152 19.9666L2.3966 17.3368C2.32636 17.1262 2.10162 17.0139 1.89093 17.0841C1.68023 17.1543 1.56786 17.3789 1.63809 17.5895L2.52301 20.2146C2.58856 20.4158 2.73371 20.5842 2.92099 20.6778C3.03337 20.734 3.1551 20.762 3.27684 20.762C3.36112 20.762 3.45008 20.748 3.52967 20.7199L12.1354 17.8375C12.3461 17.7673 12.4585 17.5427 12.3883 17.3321C12.318 17.1262 12.0933 17.0139 11.8873 17.0841Z" fill="#292624"/>
<path d="M13.2079 8.98477C13.2079 9.20469 13.3858 9.38251 13.6058 9.38251C13.8259 9.38251 14.0038 9.20469 14.0038 8.98477C13.9664 8.09103 13.2921 7.3517 12.4072 7.22536V7.18793C12.4072 6.968 12.2293 6.79019 12.0092 6.79019C11.7892 6.79019 11.6113 6.968 11.6113 7.18793V7.22536C10.7217 7.3517 10.0521 8.09103 10.0146 8.98477C10.0521 9.87851 10.7263 10.6178 11.6113 10.7442V12.7141C11.1665 12.6112 10.8434 12.2322 10.8106 11.7783C10.8106 11.5584 10.6327 11.3806 10.4126 11.3806C10.1926 11.3806 10.0146 11.5584 10.0146 11.7783C10.0521 12.672 10.7263 13.4114 11.6113 13.5377V13.5751C11.6113 13.7951 11.7892 13.9729 12.0092 13.9729C12.2293 13.9729 12.4072 13.7951 12.4072 13.5751V13.5377C13.2968 13.4114 13.9664 12.672 14.0038 11.7783C13.9664 10.8846 13.2921 10.1452 12.4072 10.0189V8.04891C12.852 8.14718 13.1798 8.53088 13.2079 8.98477ZM10.8106 8.98477C10.8387 8.53088 11.1665 8.14718 11.6113 8.04891V9.92062C11.1665 9.82236 10.8387 9.43866 10.8106 8.98477ZM13.2079 11.7783C13.1798 12.2322 12.852 12.6159 12.4072 12.7141V10.8424C12.852 10.9454 13.1798 11.3244 13.2079 11.7783Z" fill="#292624"/>
<path d="M20.3994 14.7726H21.9961C22.2161 14.7726 22.394 14.5948 22.394 14.3749V12.7793C22.394 12.5593 22.2161 12.3815 21.9961 12.3815C21.776 12.3815 21.5981 12.5593 21.5981 12.7793V13.9772H20.3994C20.1794 13.9772 20.0015 14.155 20.0015 14.3749C20.0015 14.5948 20.1794 14.7726 20.3994 14.7726Z" fill="#292624"/>
<path d="M2.022 12.3773C1.80194 12.3773 1.62402 12.5551 1.62402 12.775V14.3706C1.62402 14.5906 1.80194 14.7684 2.022 14.7684H3.61861C3.83867 14.7684 4.01659 14.5906 4.01659 14.3706C4.01659 14.1507 3.83867 13.9729 3.61861 13.9729H2.41999V12.775C2.41999 12.5597 2.24206 12.3773 2.022 12.3773Z" fill="#292624"/>
<path d="M3.61861 5.9899H2.022C1.80194 5.9899 1.62402 6.16771 1.62402 6.38764V7.98327C1.62402 8.20319 1.80194 8.38101 2.022 8.38101C2.24206 8.38101 2.41999 8.20319 2.41999 7.98327V6.78537H3.61861C3.83867 6.78537 4.01659 6.60756 4.01659 6.38764C4.01659 6.16771 3.83867 5.9899 3.61861 5.9899Z" fill="#292624"/>
<path d="M20.3994 6.7902H21.5981V7.98809C21.5981 8.20801 21.776 8.38583 21.9961 8.38583C22.2161 8.38583 22.394 8.20801 22.394 7.98809V6.39246C22.394 6.17253 22.2161 5.99472 21.9961 5.99472H20.3994C20.1794 5.99472 20.0015 6.17253 20.0015 6.39246C20.0015 6.61238 20.1794 6.7902 20.3994 6.7902Z" fill="#292624"/>
</svg>
