<svg width="14" height="23" viewBox="0 0 14 23" fill="none" xmlns="http://www.w3.org/2000/svg">
<path d="M7.77301 15.3504V9.12627C10.3211 8.70286 12.0245 6.33176 11.5951 3.83364C11.1656 1.32141 8.76074 -0.358113 6.22699 0.0652967C3.69325 0.488707 1.97546 2.8598 2.40491 5.35792C2.73415 7.29149 4.26585 8.80165 6.22699 9.12627V15.3504C2.61963 15.548 0 17.1287 0 19.1611C0 21.3487 3.00614 23 7 23C10.9939 23 14 21.3487 14 19.1611C14 17.1287 11.3661 15.548 7.77301 15.3504ZM3.89366 4.59578C3.89366 2.90214 5.28221 1.53312 7 1.53312C8.71779 1.53312 10.1063 2.90214 10.1063 4.59578C10.1063 6.28942 8.71779 7.65845 7 7.65845C5.28221 7.65845 3.89366 6.28942 3.89366 4.59578ZM7 21.4616C3.87935 21.4616 1.56033 20.2478 1.56033 19.1611C1.56033 18.1731 3.50716 17.0723 6.22699 16.8888V19.1611C6.22699 19.5845 6.57055 19.9232 7 19.9232C7.42945 19.9232 7.77301 19.5845 7.77301 19.1611V16.8888C10.4928 17.0723 12.4397 18.1731 12.4397 19.1611C12.4397 20.2478 10.1063 21.4616 7 21.4616Z" fill="#FF3300"/>
</svg>
