<svg width="50" height="50" viewBox="0 0 50 50" fill="none" xmlns="http://www.w3.org/2000/svg">
<circle cx="25" cy="25" r="25" fill="#FF8D6B"/>
<path d="M35.633 18.3529L24.6223 14V14.2353L24.5 14H24.3777L13.367 18.2353C13.1223 18.3529 13 18.5882 13 18.8235V33.2941C13 33.5294 13.1223 33.7647 13.367 33.7647L24.3777 38H24.5H24.6223L35.633 33.7647C35.8777 33.6471 36 33.5294 36 33.2941V18.8235C36 18.5882 35.8777 18.3529 35.633 18.3529ZM24.5 15.1765L27.0691 16.1176L18.1383 20L15.0798 18.8235L24.5 15.1765ZM24.0106 36.7059L14.2234 32.8235V19.6471L17.6489 21.0588V25.5294L20.4628 26.4706V22.1176L24.0106 23.5294V36.7059ZM24.5 22.4706L21.0745 21.1765L30.25 17.4118L33.9202 18.8235L24.5 22.4706ZM34.8989 32.8235L25.1117 36.7059V23.5294L34.8989 19.6471V32.8235Z" fill="white"/>
</svg>
