<svg width="50" height="50" viewBox="0 0 50 50" fill="none" xmlns="http://www.w3.org/2000/svg">
<circle cx="25" cy="25" r="25" fill="#FF8D6B"/>
<path d="M16.4821 17.5357C18.8393 15.1786 21.6786 14 25 14C28.3214 14 31.1429 15.1786 33.4643 17.5357C35.8214 19.8571 37 22.6786 37 26C37 29.3214 35.8214 32.1607 33.4643 34.5179C31.1429 36.8393 28.3214 38 25 38C21.6786 38 18.8393 36.8393 16.4821 34.5179C14.1607 32.1607 13 29.3214 13 26C13 22.6786 14.1607 19.8571 16.4821 17.5357ZM25.8571 36.2321C28.3929 36.0179 30.5357 35.0357 32.2857 33.2857C34.0357 31.5357 35.0179 29.3929 35.2321 26.8571L31.8571 26.4286V25.5714L35.2321 25.1429C35.0179 22.6071 34.0357 20.4643 32.2857 18.7143C30.5357 16.9643 28.3929 15.9821 25.8571 15.7679L25.4286 19.1429H24.5714L24.1429 15.7679C21.6071 15.9821 19.4643 16.9643 17.7143 18.7143C15.9643 20.4643 14.9821 22.6071 14.7679 25.1429L18.1429 25.5714V26.4286L14.7679 26.8571C14.9821 29.3929 15.9643 31.5357 17.7143 33.2857C19.4643 35.0357 21.6071 36.0179 24.1429 36.2321L24.5714 32.8571H25.4286L25.8571 36.2321Z" fill="white"/>
</svg>
