<svg width="50" height="50" viewBox="0 0 50 50" fill="none" xmlns="http://www.w3.org/2000/svg">
<circle cx="25" cy="25" r="25" fill="#FF8D6B"/>
<path d="M11 17H39V31.4H11V17ZM21.5547 29.6C20.3516 28.175 19.75 26.375 19.75 24.2C19.75 22.025 20.3516 20.225 21.5547 18.8H16.25C16.25 19.775 15.9036 20.6187 15.2109 21.3312C14.5182 22.0437 13.6979 22.4 12.75 22.4V26.9C13.4792 26.9 14.099 27.1625 14.6094 27.6875C15.1198 28.2125 15.375 28.85 15.375 29.6H21.5547ZM27.2969 26.2812C27.4427 26.0938 27.5156 25.8125 27.5156 25.4375C27.5156 25.25 27.4974 25.1 27.4609 24.9875C27.388 24.7625 27.3151 24.6125 27.2422 24.5375C27.0964 24.3875 26.9688 24.275 26.8594 24.2C26.6406 24.05 26.4583 23.9562 26.3125 23.9187C26.276 23.9187 26.1484 23.8812 25.9297 23.8062C25.8932 23.7687 25.8203 23.75 25.7109 23.75C25.6016 23.75 25.5286 23.75 25.4922 23.75V22.0062C25.5286 22.0437 25.5833 22.0812 25.6562 22.1188C25.7656 22.1562 25.8385 22.175 25.875 22.175C26.0938 22.325 26.2214 22.5687 26.2578 22.9062H27.3516C27.3516 22.7188 27.2786 22.475 27.1328 22.175C27.0234 21.9125 26.8594 21.7062 26.6406 21.5563C26.4219 21.4062 26.1667 21.2937 25.875 21.2188C25.7292 21.1437 25.6016 21.1062 25.4922 21.1062V20.6H24.5078V21.1062C24.4349 21.1062 24.3255 21.1437 24.1797 21.2188C23.8151 21.2937 23.5599 21.3875 23.4141 21.5C23.1953 21.6875 23.0312 21.875 22.9219 22.0625C22.776 22.3625 22.7031 22.625 22.7031 22.85C22.7031 23.0375 22.7214 23.1875 22.7578 23.3C22.7943 23.4875 22.8672 23.6187 22.9766 23.6937C23.1589 23.8812 23.3047 24.0125 23.4141 24.0875C23.6328 24.2375 23.8516 24.3312 24.0703 24.3687C24.1068 24.4062 24.1797 24.425 24.2891 24.425C24.3984 24.425 24.4714 24.425 24.5078 24.425V26.3938C24.2891 26.3187 24.125 26.2437 24.0156 26.1687C23.8333 26.0562 23.724 25.925 23.6875 25.775C23.6146 25.55 23.5781 25.3812 23.5781 25.2688H22.4844C22.4844 25.4937 22.5573 25.7937 22.7031 26.1687C22.849 26.3938 23.0312 26.6 23.25 26.7875C23.5417 27.0125 23.8151 27.1438 24.0703 27.1812C24.2891 27.2562 24.4349 27.2937 24.5078 27.2937V27.8H25.4922V27.2937C25.6016 27.2937 25.7656 27.2562 25.9844 27.1812C26.349 27.1062 26.6042 27.0125 26.75 26.9C26.8958 26.7875 27.0781 26.5813 27.2969 26.2812ZM37.25 26.9V22.4C36.3021 22.4 35.4818 22.0437 34.7891 21.3312C34.0964 20.6187 33.75 19.775 33.75 18.8H28.4453C29.6484 20.225 30.25 22.025 30.25 24.2C30.25 26.375 29.6484 28.175 28.4453 29.6H34.625C34.625 28.85 34.8802 28.2125 35.3906 27.6875C35.901 27.1625 36.5208 26.9 37.25 26.9ZM16.25 26C15.0833 26 14.5 25.4 14.5 24.2C14.5 23 15.0833 22.4 16.25 22.4C17.4167 22.4 18 23 18 24.2C18 25.4 17.4167 26 16.25 26ZM33.75 26C32.5833 26 32 25.4 32 24.2C32 23 32.5833 22.4 33.75 22.4C34.9167 22.4 35.5 23 35.5 24.2C35.5 25.4 34.9167 26 33.75 26ZM25.9297 24.8187C26.0755 24.8937 26.1849 24.9688 26.2578 25.0437C26.3672 25.1562 26.4219 25.325 26.4219 25.55C26.4219 25.7 26.4036 25.8125 26.3672 25.8875C26.2943 26.0375 26.2214 26.1312 26.1484 26.1687L25.7109 26.3938L25.6562 26.45C25.5833 26.45 25.5286 26.45 25.4922 26.45V24.7062C25.5286 24.7062 25.6016 24.725 25.7109 24.7625C25.8203 24.7625 25.8932 24.7812 25.9297 24.8187ZM23.9062 22.3438C23.9427 22.2687 24.0339 22.1937 24.1797 22.1188C24.3255 22.0437 24.4349 22.0062 24.5078 22.0062V23.4688C24.3255 23.4312 24.1615 23.3375 24.0156 23.1875C23.8698 23.0375 23.7969 22.8875 23.7969 22.7375C23.7969 22.625 23.8333 22.4938 23.9062 22.3438ZM11 35V33.2H39V35H11Z" fill="white"/>
</svg>
