<svg width="31" height="33" viewBox="0 0 31 33" fill="none" xmlns="http://www.w3.org/2000/svg">
<path d="M4.16943 32.4062V31.1597H7.9088C8.12371 31.1597 8.33862 30.9878 8.33862 30.7299V22.4345C8.33862 22.2196 8.16669 22.0047 7.9088 22.0047H5.8457C5.54483 22.0047 5.24397 21.8758 5.20098 21.7038C5.11502 21.4459 5.20098 21.1451 5.41589 20.9732L14.7428 12.6778C14.8718 12.5918 15.0007 12.5488 15.1726 12.5488C15.3446 12.5488 15.4735 12.5918 15.6024 12.6778L24.9294 20.9732C25.1443 21.1881 25.1873 21.5319 25.1443 21.6609C25.1013 21.7898 24.8434 22.0047 24.5855 22.0047H22.5224C22.3075 22.0047 22.0926 22.1766 22.0926 22.4345V30.7299C22.0926 30.9448 22.2645 31.1597 22.5224 31.1597H26.2618V32.4062H4.16943ZM18.2673 22.0047C18.0524 22.0047 17.8375 22.1766 17.8375 22.4345V30.7299C17.8375 30.9448 18.0094 31.1597 18.2673 31.1597H20.3304C20.5453 31.1597 20.7602 30.9878 20.7602 30.7299V22.4345C20.7602 22.2196 20.5883 22.0047 20.3304 22.0047H18.2673ZM14.1411 22.0047C13.9262 22.0047 13.7113 22.1766 13.7113 22.4345V30.7299C13.7113 30.9448 13.8832 31.1597 14.1411 31.1597H16.2042C16.4191 31.1597 16.634 30.9878 16.634 30.7299V22.4345C16.634 22.2196 16.4621 22.0047 16.2042 22.0047H14.1411ZM9.9719 22.0047C9.757 22.0047 9.54209 22.1766 9.54209 22.4345V30.7299C9.54209 30.9448 9.71402 31.1597 9.9719 31.1597H12.035C12.2499 31.1597 12.4648 30.9878 12.4648 30.7299V22.4345C12.4648 22.2196 12.2929 22.0047 12.035 22.0047H9.9719ZM15.1726 14.0102C15.0867 14.0102 14.9577 14.0532 14.9147 14.0962L8.25265 20.0705C8.12371 20.1995 8.08073 20.3714 8.12371 20.5433C8.16669 20.7153 8.33861 20.8012 8.51054 20.8012H21.7917C21.9637 20.8012 22.1356 20.7153 22.1786 20.5433C22.2216 20.3714 22.1786 20.1995 22.0496 20.0705L15.4305 14.1391C15.3875 14.0532 15.2586 14.0102 15.1726 14.0102Z" fill="#292624"/>
<path d="M4.98583 26.1756C4.89986 26.1756 4.68496 26.1326 4.55601 26.0037C1.63329 23.1669 0 19.2986 0 15.1724C0 6.79104 6.79104 0 15.1724 0C23.5537 0 30.3448 6.79104 30.3448 15.1724C30.3448 19.3416 28.7115 23.1669 25.7888 25.8747C25.6598 26.0037 25.4879 26.0896 25.3589 26.0896C25.187 26.0896 25.0581 26.0037 24.9291 25.9177C24.6712 25.6598 24.6712 25.316 24.9291 25.0581C27.3791 22.7371 28.8834 19.4705 29.0983 16.161C29.0983 16.032 29.0553 15.946 28.9694 15.8601C28.8834 15.7741 28.7974 15.7311 28.6685 15.7311H25.5309C25.144 15.7311 24.9291 15.5162 24.9291 15.1294C24.9291 14.7426 25.144 14.5277 25.5309 14.5277H28.7974C28.9264 14.5277 29.0123 14.4847 29.0983 14.3987C29.1843 14.3128 29.2273 14.1838 29.1843 14.0979C28.9694 11.8198 28.1957 9.58482 27.0352 7.77961C26.9492 7.65066 26.8203 7.60768 26.6914 7.60768C26.6484 7.60768 26.5624 7.60768 26.5194 7.65066C25.316 8.16644 24.0695 8.46731 22.823 8.76818C22.6081 8.81116 22.4792 9.02606 22.5222 9.24097C22.823 10.7883 23.038 12.4216 23.1239 14.1408C23.1239 14.4417 22.866 14.7426 22.5222 14.7426C22.2213 14.7426 21.9204 14.3987 21.9204 14.1408C21.9204 14.1408 21.9204 14.1408 21.9204 14.0979C21.8345 12.4216 21.6196 10.8313 21.2757 9.36991C21.2327 9.15501 21.0608 9.02606 20.8459 9.02606C20.8029 9.02606 20.8029 9.02606 20.7599 9.02606C19.0837 9.28395 17.6223 9.45588 16.3329 9.45588C16.118 9.45588 15.9031 9.6278 15.9031 9.88569C15.9031 10.2725 15.6882 10.4874 15.3013 10.4874C14.9145 10.4874 14.6996 10.2725 14.6996 9.88569C14.6996 9.67078 14.5277 9.45588 14.2698 9.45588C12.6365 9.45588 11.1321 9.24097 9.75675 9.02606C9.71376 9.02606 9.71376 9.02606 9.71376 9.02606C9.49886 9.02606 9.32693 9.15501 9.28395 9.36991C8.98308 10.8313 8.76818 12.4216 8.63923 14.0979C8.63923 14.0979 8.63923 14.0979 8.63923 14.1408C8.63923 14.5277 8.33836 14.7426 8.03749 14.7426C7.65066 14.7426 7.43576 14.5277 7.43576 14.1408C7.52172 12.4216 7.73663 10.7453 8.03749 9.24097C8.08048 9.02606 7.95153 8.81116 7.73663 8.76818C6.1893 8.33836 4.94284 7.95153 4.04024 7.65066C3.99726 7.65066 3.95428 7.65066 3.91129 7.65066C3.78235 7.65066 3.65341 7.73663 3.56744 7.82259C2.36397 9.71376 1.63329 11.8198 1.41838 14.1408C1.41838 14.2698 1.46136 14.3557 1.54733 14.4417C1.63329 14.5277 1.71925 14.5706 1.84819 14.5706H4.85688C5.24371 14.5706 5.45862 14.7856 5.45862 15.1724C5.45862 15.5592 5.24371 15.7741 4.85688 15.7741H1.67627C1.54733 15.7741 1.46136 15.8171 1.3754 15.9031C1.28944 15.989 1.24646 16.118 1.28944 16.2039C1.63329 19.6854 3.09465 22.823 5.45862 25.1011C5.58756 25.23 5.63054 25.3589 5.63054 25.5309C5.63054 25.7028 5.54458 25.8317 5.45862 25.9607C5.28669 26.1326 5.15775 26.1756 4.98583 26.1756ZM16.2039 1.46136C16.118 1.46136 16.032 1.50434 15.946 1.54733C15.8171 1.63329 15.7741 1.76223 15.7741 1.89118V7.90855C15.7741 8.03749 15.8171 8.12346 15.9031 8.20942C15.989 8.29538 16.075 8.33836 16.2039 8.33836H16.2469L16.5478 8.29538C17.7513 8.20942 18.9547 8.08048 20.3301 7.90855C20.4591 7.90855 20.545 7.82259 20.631 7.73663C20.717 7.65066 20.717 7.52172 20.674 7.39278C19.6424 4.21216 18.1381 2.14906 16.3759 1.46136C16.2899 1.46136 16.2469 1.46136 16.2039 1.46136ZM14.1408 1.46136C14.0979 1.46136 14.0549 1.46136 14.0119 1.50434C12.2497 2.14906 10.7023 4.25514 9.71376 7.39278C9.67078 7.52172 9.67078 7.65066 9.75675 7.73663C9.79973 7.82259 9.92867 7.90855 10.0576 7.95153C11.3471 8.16644 12.7225 8.38134 14.1838 8.38134C14.3987 8.38134 14.6136 8.20942 14.6136 7.95153V1.93416C14.6136 1.80521 14.5277 1.67627 14.4417 1.59031C14.3128 1.46136 14.2268 1.46136 14.1408 1.46136ZM10.1866 2.19204C10.1436 2.19204 10.0576 2.19204 10.0146 2.23503C7.95153 3.09465 6.14632 4.38409 4.77092 5.97439C4.68496 6.10334 4.64198 6.23228 4.68496 6.36123C4.72794 6.49017 4.8139 6.61911 4.98583 6.66209C5.20073 6.70508 5.45862 6.79104 5.71651 6.877C6.31824 7.04893 7.09191 7.26383 7.90855 7.47874C7.95153 7.47874 7.99451 7.47874 8.03749 7.47874C8.20942 7.47874 8.38134 7.34979 8.42433 7.17787C9.02606 5.5016 9.71376 4.08322 10.5734 2.79378C10.6594 2.62186 10.6594 2.44993 10.5304 2.27801C10.4444 2.23503 10.3155 2.19204 10.1866 2.19204ZM20.1582 2.19204C20.0293 2.19204 19.9003 2.23503 19.8144 2.36397C19.6854 2.49291 19.6854 2.70782 19.8144 2.87974C20.7599 4.1262 21.4476 5.54458 21.9204 7.22085C21.9634 7.39278 22.1353 7.52172 22.3073 7.52172C22.3503 7.52172 22.3503 7.52172 22.3932 7.52172C23.1239 7.34979 23.8546 7.13489 24.6283 6.91998C24.8432 6.83402 25.1011 6.79104 25.3589 6.70508C25.4879 6.66209 25.6168 6.57613 25.6598 6.40421C25.7028 6.27526 25.6598 6.10334 25.5738 6.01738C24.1984 4.42707 22.3932 3.13763 20.3301 2.27801C20.2872 2.19204 20.2012 2.19204 20.1582 2.19204Z" fill="#292624"/>
</svg>
