<svg width="20" height="20" viewBox="0 0 20 20" fill="none" xmlns="http://www.w3.org/2000/svg">
<path d="M19.254 3.62745L10.2114 0V0.196078L10.1109 0H10.0105L0.967922 3.52941C0.766977 3.62745 0.666504 3.82353 0.666504 4.01961V16.0784C0.666504 16.2745 0.766977 16.4706 0.967922 16.4706L10.0105 20H10.1109H10.2114L19.254 16.4706C19.4549 16.3725 19.5554 16.2745 19.5554 16.0784V4.01961C19.5554 3.82353 19.4549 3.62745 19.254 3.62745ZM10.1109 0.980392L12.2209 1.76471L4.88636 5L2.37454 4.01961L10.1109 0.980392ZM9.70906 18.9216L1.67123 15.6863V4.70588L4.48447 5.88235V9.60784L6.79535 10.3922V6.76471L9.70906 7.94118V18.9216ZM10.1109 7.05882L7.29771 5.98039L14.8332 2.84314L17.8474 4.01961L10.1109 7.05882ZM18.6511 15.6863L10.6133 18.9216V7.94118L18.6511 4.70588V15.6863Z" fill="#292624"/>
</svg>
