<svg width="17" height="24" viewBox="0 0 17 24" fill="none" xmlns="http://www.w3.org/2000/svg">
<path d="M8.90685 13.6414C8.80846 13.6414 8.71007 13.6414 8.61168 13.6414C8.71007 13.6414 8.80846 13.6904 8.90685 13.6414C9.00524 13.6904 9.10363 13.6904 9.20202 13.6414C9.10363 13.6414 9.00524 13.6414 8.90685 13.6414ZM8.90685 13.6414C8.80846 13.6414 8.71007 13.6414 8.61168 13.6414C8.71007 13.6414 8.80846 13.6904 8.90685 13.6414C9.00524 13.6904 9.10363 13.6904 9.20202 13.6414C9.10363 13.6414 9.00524 13.6414 8.90685 13.6414ZM8.90685 8.59462C7.43102 8.59462 6.20116 9.86857 6.20116 11.3875C6.20116 12.4165 6.7423 13.3474 7.5786 13.8374C7.87377 13.7394 8.21813 13.6904 8.56249 13.6414C7.48022 13.4944 6.69311 12.5634 6.69311 11.3875C6.69311 10.1136 7.67699 9.1336 8.85766 9.1336C10.0383 9.1336 11.0222 10.1136 11.0222 11.3875C11.0222 12.5634 10.2351 13.4944 9.15282 13.6414C9.49718 13.6904 9.84154 13.7394 10.1367 13.8374C10.973 13.3474 11.5141 12.4165 11.5141 11.3875C11.5633 9.86857 10.3827 8.59462 8.90685 8.59462ZM8.90685 13.6414C8.80846 13.6414 8.71007 13.6414 8.61168 13.6414C8.71007 13.6414 8.80846 13.6904 8.90685 13.6414C9.00524 13.6904 9.10363 13.6904 9.20202 13.6414C9.10363 13.6414 9.00524 13.6414 8.90685 13.6414ZM8.90685 13.6414C8.80846 13.6414 8.71007 13.6414 8.61168 13.6414C8.71007 13.6414 8.80846 13.6904 8.90685 13.6414C9.00524 13.6904 9.10363 13.6904 9.20202 13.6414C9.10363 13.6414 9.00524 13.6414 8.90685 13.6414ZM8.90685 13.6414C8.80846 13.6414 8.71007 13.6414 8.61168 13.6414C8.71007 13.6414 8.80846 13.6904 8.90685 13.6414C9.00524 13.6904 9.10363 13.6904 9.20202 13.6414C9.10363 13.6414 9.00524 13.6414 8.90685 13.6414ZM8.90685 13.6414C8.80846 13.6414 8.71007 13.6414 8.61168 13.6414C8.71007 13.6414 8.80846 13.6904 8.90685 13.6414C9.00524 13.6904 9.10363 13.6904 9.20202 13.6414C9.10363 13.6414 9.00524 13.6414 8.90685 13.6414ZM8.90685 13.6414C8.80846 13.6414 8.71007 13.6414 8.61168 13.6414C8.71007 13.6414 8.80846 13.6904 8.90685 13.6414C9.00524 13.6904 9.10363 13.6904 9.20202 13.6414C9.10363 13.6414 9.00524 13.6414 8.90685 13.6414ZM8.90685 8.59462C7.43102 8.59462 6.20116 9.86857 6.20116 11.3875C6.20116 12.4165 6.7423 13.3474 7.5786 13.8374C7.87377 13.7394 8.21813 13.6904 8.56249 13.6414C7.48022 13.4944 6.69311 12.5634 6.69311 11.3875C6.69311 10.1136 7.67699 9.1336 8.85766 9.1336C10.0383 9.1336 11.0222 10.1136 11.0222 11.3875C11.0222 12.5634 10.2351 13.4944 9.15282 13.6414C9.49718 13.6904 9.84154 13.7394 10.1367 13.8374C10.973 13.3474 11.5141 12.4165 11.5141 11.3875C11.5633 9.86857 10.3827 8.59462 8.90685 8.59462ZM8.90685 13.6414C8.80846 13.6414 8.71007 13.6414 8.61168 13.6414C8.71007 13.6414 8.80846 13.6904 8.90685 13.6414C9.00524 13.6904 9.10363 13.6904 9.20202 13.6414C9.10363 13.6414 9.00524 13.6414 8.90685 13.6414ZM12.9408 19.9621H4.82373C4.62695 19.9621 4.43017 20.1091 4.43017 20.3541C4.43017 20.5991 4.57775 20.7461 4.82373 20.7461H12.9408C13.1376 20.7461 13.3343 20.5991 13.3343 20.3541C13.3343 20.1091 13.1868 19.9621 12.9408 19.9621ZM12.9408 19.9621H4.82373C4.62695 19.9621 4.43017 20.1091 4.43017 20.3541C4.43017 20.5991 4.57775 20.7461 4.82373 20.7461H12.9408C13.1376 20.7461 13.3343 20.5991 13.3343 20.3541C13.3343 20.1091 13.1868 19.9621 12.9408 19.9621ZM8.90685 13.6414C8.80846 13.6414 8.71007 13.6414 8.61168 13.6414C8.71007 13.6414 8.80846 13.6904 8.90685 13.6414C9.00524 13.6904 9.10363 13.6904 9.20202 13.6414C9.10363 13.6414 9.00524 13.6414 8.90685 13.6414ZM8.90685 8.59462C7.43102 8.59462 6.20116 9.86857 6.20116 11.3875C6.20116 12.4165 6.7423 13.3474 7.5786 13.8374C7.87377 13.7394 8.21813 13.6904 8.56249 13.6414C7.48022 13.4944 6.69311 12.5634 6.69311 11.3875C6.69311 10.1136 7.67699 9.1336 8.85766 9.1336C10.0383 9.1336 11.0222 10.1136 11.0222 11.3875C11.0222 12.5634 10.2351 13.4944 9.15282 13.6414C9.49718 13.6904 9.84154 13.7394 10.1367 13.8374C10.973 13.3474 11.5141 12.4165 11.5141 11.3875C11.5633 9.86857 10.3827 8.59462 8.90685 8.59462ZM8.90685 13.6414C8.80846 13.6414 8.71007 13.6414 8.61168 13.6414C8.71007 13.6414 8.80846 13.6904 8.90685 13.6414C9.00524 13.6904 9.10363 13.6904 9.20202 13.6414C9.10363 13.6414 9.00524 13.6414 8.90685 13.6414ZM8.90685 13.6414C8.80846 13.6414 8.71007 13.6414 8.61168 13.6414C8.71007 13.6414 8.80846 13.6904 8.90685 13.6414C9.00524 13.6904 9.10363 13.6904 9.20202 13.6414C9.10363 13.6414 9.00524 13.6414 8.90685 13.6414ZM8.90685 8.59462C7.43102 8.59462 6.20116 9.86857 6.20116 11.3875C6.20116 12.4165 6.7423 13.3474 7.5786 13.8374C7.87377 13.7394 8.21813 13.6904 8.56249 13.6414C7.48022 13.4944 6.69311 12.5634 6.69311 11.3875C6.69311 10.1136 7.67699 9.1336 8.85766 9.1336C10.0383 9.1336 11.0222 10.1136 11.0222 11.3875C11.0222 12.5634 10.2351 13.4944 9.15282 13.6414C9.49718 13.6904 9.84154 13.7394 10.1367 13.8374C10.973 13.3474 11.5141 12.4165 11.5141 11.3875C11.5633 9.86857 10.3827 8.59462 8.90685 8.59462ZM12.9408 19.9621H4.82373C4.62695 19.9621 4.43017 20.1091 4.43017 20.3541C4.43017 20.5991 4.57775 20.7461 4.82373 20.7461H12.9408C13.1376 20.7461 13.3343 20.5991 13.3343 20.3541C13.3343 20.1091 13.1868 19.9621 12.9408 19.9621ZM12.9408 19.9621H4.82373C4.62695 19.9621 4.43017 20.1091 4.43017 20.3541C4.43017 20.5991 4.57775 20.7461 4.82373 20.7461H12.9408C13.1376 20.7461 13.3343 20.5991 13.3343 20.3541C13.3343 20.1091 13.1868 19.9621 12.9408 19.9621ZM7.5786 13.8374C7.87377 13.7394 8.21813 13.6904 8.56249 13.6414C7.48022 13.4944 6.69311 12.5634 6.69311 11.3875C6.69311 10.1136 7.67699 9.1336 8.85766 9.1336C10.0383 9.1336 11.0222 10.1136 11.0222 11.3875C11.0222 12.5634 10.2351 13.4944 9.15282 13.6414C9.49718 13.6904 9.84154 13.7394 10.1367 13.8374C10.973 13.3474 11.5141 12.4165 11.5141 11.3875C11.5141 9.86857 10.3335 8.59462 8.80846 8.59462C7.33263 8.59462 6.10278 9.86857 6.10278 11.3875C6.20116 12.4654 6.7915 13.3474 7.5786 13.8374ZM8.61168 13.6414C8.71007 13.6414 8.80846 13.6904 8.90685 13.6904C9.00524 13.6904 9.10363 13.6904 9.20202 13.6414C9.10363 13.6414 9.00524 13.6414 8.90685 13.6414C8.80846 13.6414 8.71007 13.6414 8.61168 13.6414ZM13.4819 3.84184H11.465C11.465 3.89084 11.465 3.93984 11.465 4.03783C11.465 4.08683 11.465 4.13583 11.465 4.23382C11.4158 4.87079 11.1698 5.45877 10.727 5.89975C10.2351 6.38972 9.54638 6.68371 8.85766 6.68371C7.43102 6.68371 6.29955 5.60576 6.20116 4.18482C6.20116 4.13583 6.20116 4.08683 6.20116 3.98883C6.20116 3.93984 6.20116 3.89084 6.20116 3.79284H4.13501C2.4624 3.84184 1.08496 5.21378 1.08496 6.8797V19.9621C1.08496 21.628 2.4624 23 4.13501 23H13.4819C15.1545 23 16.532 21.628 16.532 19.9621V6.8797C16.532 5.21378 15.1545 3.84184 13.4819 3.84184ZM16.1876 19.9131C16.1876 21.383 15.0069 22.559 13.5311 22.559H4.1842C2.70837 22.559 1.52771 21.383 1.52771 19.9131V6.8797C1.52771 5.40977 2.70837 4.23382 4.1842 4.23382H5.8568C5.95519 5.80175 7.28344 7.07569 8.90685 7.07569C10.5303 7.07569 11.8585 5.80175 11.9569 4.23382H13.6295C15.1053 4.23382 16.286 5.40977 16.286 6.8797V19.9131H16.1876ZM12.9408 19.9621H4.82373C4.62695 19.9621 4.43017 20.1091 4.43017 20.3541C4.43017 20.5991 4.57775 20.7461 4.82373 20.7461H12.9408C13.1376 20.7461 13.3343 20.5991 13.3343 20.3541C13.3343 20.1091 13.1868 19.9621 12.9408 19.9621ZM7.5786 13.8374C7.87377 13.7394 8.21813 13.6904 8.56249 13.6414C7.48022 13.4944 6.69311 12.5634 6.69311 11.3875C6.69311 10.1136 7.67699 9.1336 8.85766 9.1336C10.0383 9.1336 11.0222 10.1136 11.0222 11.3875C11.0222 12.5634 10.2351 13.4944 9.15282 13.6414C9.49718 13.6904 9.84154 13.7394 10.1367 13.8374C10.973 13.3474 11.5141 12.4165 11.5141 11.3875C11.5141 9.86857 10.3335 8.59462 8.80846 8.59462C7.33263 8.59462 6.10278 9.86857 6.10278 11.3875C6.20116 12.4654 6.7915 13.3474 7.5786 13.8374ZM8.61168 13.6414C8.71007 13.6414 8.80846 13.6904 8.90685 13.6904C9.00524 13.6904 9.10363 13.6904 9.20202 13.6414C9.10363 13.6414 9.00524 13.6414 8.90685 13.6414C8.80846 13.6414 8.71007 13.6414 8.61168 13.6414ZM8.90685 13.6414C8.80846 13.6414 8.71007 13.6414 8.61168 13.6414C8.71007 13.6414 8.80846 13.6904 8.90685 13.6414C9.00524 13.6904 9.10363 13.6904 9.20202 13.6414C9.10363 13.6414 9.00524 13.6414 8.90685 13.6414ZM8.90685 8.59462C7.43102 8.59462 6.20116 9.86857 6.20116 11.3875C6.20116 12.4165 6.7423 13.3474 7.5786 13.8374C7.87377 13.7394 8.21813 13.6904 8.56249 13.6414C7.48022 13.4944 6.69311 12.5634 6.69311 11.3875C6.69311 10.1136 7.67699 9.1336 8.85766 9.1336C10.0383 9.1336 11.0222 10.1136 11.0222 11.3875C11.0222 12.5634 10.2351 13.4944 9.15282 13.6414C9.49718 13.6904 9.84154 13.7394 10.1367 13.8374C10.973 13.3474 11.5141 12.4165 11.5141 11.3875C11.5633 9.86857 10.3827 8.59462 8.90685 8.59462ZM12.9408 19.9621H4.82373C4.62695 19.9621 4.43017 20.1091 4.43017 20.3541C4.43017 20.5991 4.57775 20.7461 4.82373 20.7461H12.9408C13.1376 20.7461 13.3343 20.5991 13.3343 20.3541C13.3343 20.1091 13.1868 19.9621 12.9408 19.9621ZM12.9408 19.9621H4.82373C4.62695 19.9621 4.43017 20.1091 4.43017 20.3541C4.43017 20.5991 4.57775 20.7461 4.82373 20.7461H12.9408C13.1376 20.7461 13.3343 20.5991 13.3343 20.3541C13.3343 20.1091 13.1868 19.9621 12.9408 19.9621ZM8.90685 13.6414C8.80846 13.6414 8.71007 13.6414 8.61168 13.6414C8.71007 13.6414 8.80846 13.6904 8.90685 13.6414C9.00524 13.6904 9.10363 13.6904 9.20202 13.6414C9.10363 13.6414 9.00524 13.6414 8.90685 13.6414ZM8.90685 8.59462C7.43102 8.59462 6.20116 9.86857 6.20116 11.3875C6.20116 12.4165 6.7423 13.3474 7.5786 13.8374C7.87377 13.7394 8.21813 13.6904 8.56249 13.6414C7.48022 13.4944 6.69311 12.5634 6.69311 11.3875C6.69311 10.1136 7.67699 9.1336 8.85766 9.1336C10.0383 9.1336 11.0222 10.1136 11.0222 11.3875C11.0222 12.5634 10.2351 13.4944 9.15282 13.6414C9.49718 13.6904 9.84154 13.7394 10.1367 13.8374C10.973 13.3474 11.5141 12.4165 11.5141 11.3875C11.5633 9.86857 10.3827 8.59462 8.90685 8.59462ZM8.90685 13.6414C8.80846 13.6414 8.71007 13.6414 8.61168 13.6414C8.71007 13.6414 8.80846 13.6904 8.90685 13.6414C9.00524 13.6904 9.10363 13.6904 9.20202 13.6414C9.10363 13.6414 9.00524 13.6414 8.90685 13.6414ZM11.6617 3.84184C11.6125 3.15587 11.3174 2.4699 10.8254 2.02892C10.2843 1.53894 9.59557 1.19596 8.80846 1.19596C8.02135 1.19596 7.28344 1.53894 6.7915 2.02892C6.29955 2.5189 6.00439 3.15587 5.95519 3.84184C5.95519 3.89084 5.95519 3.93984 5.95519 4.03783C5.95519 4.13583 5.95519 4.13583 5.95519 4.23382C6.05358 5.70376 7.28344 6.8797 8.80846 6.8797C9.59557 6.8797 10.2843 6.58572 10.8254 6.04674C11.3174 5.55676 11.6125 4.91979 11.6617 4.23382C11.6617 4.18482 11.6617 4.13583 11.6617 4.03783C11.6617 3.93984 11.6617 3.89084 11.6617 3.84184ZM11.465 4.18482C11.4158 4.87079 11.1698 5.45877 10.727 5.89975C10.2351 6.38972 9.54638 6.68371 8.85766 6.68371C7.43102 6.68371 6.29955 5.60576 6.20116 4.18482C6.20116 4.13583 6.20116 4.08683 6.20116 3.98883C6.20116 3.93984 6.20116 3.89084 6.20116 3.79284C6.29955 2.4209 7.43102 1.34295 8.85766 1.34295C10.2843 1.34295 11.4158 2.4209 11.5141 3.79284C11.5141 3.84184 11.5141 3.89084 11.5141 3.98883C11.465 4.08683 11.465 4.13583 11.465 4.18482ZM11.8585 3.84184C11.7601 2.27391 10.4319 0.999969 8.80846 0.999969C7.18505 0.999969 5.8568 2.27391 5.75842 3.84184C5.75842 3.89084 5.75842 3.93984 5.75842 4.03783C5.75842 4.08683 5.75842 4.13583 5.75842 4.23382C5.8568 5.80175 7.18505 7.07569 8.80846 7.07569C10.4319 7.07569 11.7601 5.80175 11.8585 4.23382C11.8585 4.18482 11.8585 4.13583 11.8585 4.03783C11.8585 3.93984 11.8585 3.89084 11.8585 3.84184ZM11.465 4.03783C11.465 4.08683 11.465 4.13583 11.465 4.23382C11.4158 4.87079 11.1698 5.45877 10.727 5.89975C10.2351 6.38972 9.54638 6.68371 8.85766 6.68371C7.43102 6.68371 6.29955 5.60576 6.20116 4.18482C6.20116 4.13583 6.20116 4.08683 6.20116 3.98883C6.20116 3.93984 6.20116 3.89084 6.20116 3.79284C6.29955 2.4209 7.43102 1.34295 8.85766 1.34295C10.2843 1.34295 11.4158 2.4209 11.5141 3.79284C11.465 3.89084 11.465 3.93984 11.465 4.03783ZM12.9408 19.9621H4.82373C4.62695 19.9621 4.43017 20.1091 4.43017 20.3541C4.43017 20.5991 4.57775 20.7461 4.82373 20.7461H12.9408C13.1376 20.7461 13.3343 20.5991 13.3343 20.3541C13.3343 20.1091 13.1868 19.9621 12.9408 19.9621Z" fill="#0081C0"/>
<path d="M8.90685 13.6414C8.80846 13.6414 8.71007 13.6414 8.61168 13.6414M8.90685 13.6414C8.80846 13.6904 8.71007 13.6414 8.61168 13.6414M8.90685 13.6414C9.00524 13.6904 9.10363 13.6904 9.20202 13.6414M8.90685 13.6414C9.00524 13.6414 9.10363 13.6414 9.20202 13.6414M8.61168 13.6414C8.71007 13.6414 8.80846 13.6904 8.90685 13.6904C9.00524 13.6904 9.10363 13.6904 9.20202 13.6414M7.5786 13.8374C6.7423 13.3474 6.20116 12.4165 6.20116 11.3875C6.20116 9.86857 7.43102 8.59462 8.90685 8.59462C10.3827 8.59462 11.5633 9.86857 11.5141 11.3875M7.5786 13.8374C7.87377 13.7394 8.21813 13.6904 8.56249 13.6414C7.48022 13.4944 6.69311 12.5634 6.69311 11.3875C6.69311 10.1136 7.67699 9.1336 8.85766 9.1336C10.0383 9.1336 11.0222 10.1136 11.0222 11.3875C11.0222 12.5634 10.2351 13.4944 9.15282 13.6414C9.49718 13.6904 9.84154 13.7394 10.1367 13.8374C10.973 13.3474 11.5141 12.4165 11.5141 11.3875M7.5786 13.8374C6.7915 13.3474 6.20116 12.4654 6.10278 11.3875C6.10278 9.86857 7.33263 8.59462 8.80846 8.59462C10.3335 8.59462 11.5141 9.86857 11.5141 11.3875M11.465 4.03783C11.465 3.93984 11.465 3.89084 11.465 3.84184H13.4819C15.1545 3.84184 16.532 5.21378 16.532 6.8797V19.9621C16.532 21.628 15.1545 23 13.4819 23H4.13501C2.4624 23 1.08496 21.628 1.08496 19.9621V6.8797C1.08496 5.21378 2.4624 3.84184 4.13501 3.79284H6.20116M11.465 4.03783C11.465 4.08683 11.465 4.13583 11.465 4.23382C11.4158 4.87079 11.1698 5.45877 10.727 5.89975M11.465 4.03783C11.465 3.93984 11.465 3.89084 11.5141 3.79284M10.727 5.89975C10.2351 6.38972 9.54638 6.68371 8.85766 6.68371C7.43102 6.68371 6.29955 5.60576 6.20116 4.18482C6.20116 4.13583 6.20116 4.08683 6.20116 3.98883C6.20116 3.93984 6.20116 3.89084 6.20116 3.79284M10.727 5.89975C11.1698 5.45877 11.4158 4.87079 11.465 4.18482C11.465 4.13583 11.465 4.08683 11.5141 3.98883C11.5141 3.89084 11.5141 3.84184 11.5141 3.79284M6.20116 3.79284C6.29955 2.4209 7.43102 1.34295 8.85766 1.34295C10.2843 1.34295 11.4158 2.4209 11.5141 3.79284M12.9408 19.9621H4.82373C4.62695 19.9621 4.43017 20.1091 4.43017 20.3541C4.43017 20.5991 4.57775 20.7461 4.82373 20.7461H12.9408C13.1376 20.7461 13.3343 20.5991 13.3343 20.3541C13.3343 20.1091 13.1868 19.9621 12.9408 19.9621ZM16.1876 19.9131C16.1876 21.383 15.0069 22.559 13.5311 22.559H4.1842C2.70837 22.559 1.52771 21.383 1.52771 19.9131V6.8797C1.52771 5.40977 2.70837 4.23382 4.1842 4.23382H5.85681C5.95519 5.80175 7.28344 7.07569 8.90685 7.07569C10.5303 7.07569 11.8585 5.80175 11.9569 4.23382H13.6295C15.1053 4.23382 16.286 5.40977 16.286 6.8797V19.9131H16.1876ZM11.6617 3.84184C11.6125 3.15587 11.3174 2.4699 10.8254 2.02892C10.2843 1.53894 9.59557 1.19596 8.80846 1.19596C8.02135 1.19596 7.28344 1.53894 6.7915 2.02892C6.29955 2.5189 6.00439 3.15587 5.95519 3.84184C5.95519 3.89084 5.95519 3.93984 5.95519 4.03783C5.95519 4.13583 5.95519 4.13583 5.95519 4.23382C6.05358 5.70376 7.28344 6.8797 8.80846 6.8797C9.59557 6.8797 10.2843 6.58572 10.8254 6.04674C11.3174 5.55676 11.6125 4.91979 11.6617 4.23382C11.6617 4.18482 11.6617 4.13583 11.6617 4.03783C11.6617 3.93984 11.6617 3.89084 11.6617 3.84184ZM11.8585 3.84184C11.7601 2.27391 10.4319 0.999969 8.80846 0.999969C7.18505 0.999969 5.8568 2.27391 5.75842 3.84184C5.75842 3.89084 5.75842 3.93984 5.75842 4.03783C5.75842 4.08683 5.75842 4.13583 5.75842 4.23382C5.8568 5.80175 7.18505 7.07569 8.80846 7.07569C10.4319 7.07569 11.7601 5.80175 11.8585 4.23382C11.8585 4.18482 11.8585 4.13583 11.8585 4.03783C11.8585 3.93984 11.8585 3.89084 11.8585 3.84184Z" stroke="#0081C0" stroke-width="0.375"/>
<path d="M13.3345 18.1985H12.7933C12.7933 15.9936 11.0223 14.1807 8.90698 14.1807C6.74243 14.1807 5.02063 15.9936 5.02063 18.1985H4.47949C4.47949 16.1406 5.80774 14.3767 7.62793 13.8377C7.92309 13.7398 8.26745 13.6908 8.61181 13.6418C8.7102 13.6418 8.80859 13.6908 8.90698 13.6908C9.00537 13.6908 9.10375 13.6908 9.20214 13.6418C9.5465 13.6908 9.89086 13.7398 10.186 13.8377C12.0062 14.4257 13.3345 16.1406 13.3345 18.1985Z" fill="#0081C0" stroke="#0081C0" stroke-width="0.375"/>
</svg>
